{
	"asset":{
		"generator":"Khronos glTF Blender I/O v4.4.55",
		"version":"2.0"
	},
	"scene":0,
	"scenes":[
		{
			"name":"Scene",
			"nodes":[
				0
			]
		}
	],
	"nodes":[
		{
			"mesh":0,
			"name":"Plane.001",
			"scale":[
				3,
				3,
				3
			]
		}
	],
	"materials":[
		{
			"doubleSided":true,
			"name":"Material.001",
			"pbrMetallicRoughness":{
				"baseColorFactor":[
					0.0736975148320198,
					0.37185385823249817,
					0.054666999727487564,
					1
				],
				"metallicFactor":0,
				"roughnessFactor":0.5
			}
		},
		{
			"doubleSided":true,
			"name":"Material.004",
			"pbrMetallicRoughness":{
				"baseColorFactor":[
					0.800000011920929,
					0.800000011920929,
					0.800000011920929,
					1
				],
				"metallicFactor":0,
				"roughnessFactor":0.5
			}
		},
		{
			"doubleSided":true,
			"name":"Material.005",
			"pbrMetallicRoughness":{
				"baseColorFactor":[
					0,
					0,
					0,
					1
				],
				"metallicFactor":0,
				"roughnessFactor":0.5
			}
		},
		{
			"doubleSided":true,
			"name":"Material.002",
			"pbrMetallicRoughness":{
				"baseColorFactor":[
					0.8000000715255737,
					0.8000000715255737,
					0.8000000715255737,
					1
				],
				"metallicFactor":0,
				"roughnessFactor":0.5
			}
		},
		{
			"doubleSided":true,
			"name":"Material.003",
			"pbrMetallicRoughness":{
				"baseColorFactor":[
					0,
					0,
					0,
					1
				],
				"metallicFactor":0,
				"roughnessFactor":0.5
			}
		},
		{
			"doubleSided":true,
			"name":"Material.007",
			"pbrMetallicRoughness":{
				"baseColorFactor":[
					0,
					0,
					0,
					1
				],
				"metallicFactor":0,
				"roughnessFactor":0.5
			}
		},
		{
			"doubleSided":true,
			"name":"Material.006",
			"pbrMetallicRoughness":{
				"baseColorFactor":[
					0,
					0,
					0,
					1
				],
				"metallicFactor":0,
				"roughnessFactor":0.5
			}
		}
	],
	"meshes":[
		{
			"name":"Mesh.002",
			"primitives":[
				{
					"attributes":{
						"POSITION":0,
						"NORMAL":1,
						"TEXCOORD_0":2
					},
					"indices":3,
					"material":0
				},
				{
					"attributes":{
						"POSITION":4,
						"NORMAL":5,
						"TEXCOORD_0":6
					},
					"indices":7,
					"material":1
				},
				{
					"attributes":{
						"POSITION":8,
						"NORMAL":9,
						"TEXCOORD_0":10
					},
					"indices":11,
					"material":2
				},
				{
					"attributes":{
						"POSITION":12,
						"NORMAL":13,
						"TEXCOORD_0":14
					},
					"indices":15,
					"material":3
				},
				{
					"attributes":{
						"POSITION":16,
						"NORMAL":17,
						"TEXCOORD_0":18
					},
					"indices":11,
					"material":4
				},
				{
					"attributes":{
						"POSITION":19,
						"NORMAL":20,
						"TEXCOORD_0":21
					},
					"indices":22,
					"material":5
				},
				{
					"attributes":{
						"POSITION":23,
						"NORMAL":24,
						"TEXCOORD_0":25
					},
					"indices":26,
					"material":6
				}
			]
		}
	],
	"accessors":[
		{
			"bufferView":0,
			"componentType":5126,
			"count":17499,
			"max":[
				1.417661190032959,
				5.4636712074279785,
				1.1420762538909912
			],
			"min":[
				-1.3644733428955078,
				-0.0938621461391449,
				-0.6146354079246521
			],
			"type":"VEC3"
		},
		{
			"bufferView":1,
			"componentType":5126,
			"count":17499,
			"type":"VEC3"
		},
		{
			"bufferView":2,
			"componentType":5126,
			"count":17499,
			"type":"VEC2"
		},
		{
			"bufferView":3,
			"componentType":5123,
			"count":26256,
			"type":"SCALAR"
		},
		{
			"bufferView":4,
			"componentType":5126,
			"count":1888,
			"max":[
				-0.10193735361099243,
				5.1519904136657715,
				0.7690995335578918
			],
			"min":[
				-0.4402106702327728,
				4.813716888427734,
				0.43407583236694336
			],
			"type":"VEC3"
		},
		{
			"bufferView":5,
			"componentType":5126,
			"count":1888,
			"type":"VEC3"
		},
		{
			"bufferView":6,
			"componentType":5126,
			"count":1888,
			"type":"VEC2"
		},
		{
			"bufferView":7,
			"componentType":5123,
			"count":2784,
			"type":"SCALAR"
		},
		{
			"bufferView":8,
			"componentType":5126,
			"count":224,
			"max":[
				-0.23807713389396667,
				5.01585054397583,
				0.7690995335578918
			],
			"min":[
				-0.30407100915908813,
				4.949856758117676,
				0.7303332090377808
			],
			"type":"VEC3"
		},
		{
			"bufferView":9,
			"componentType":5126,
			"count":224,
			"type":"VEC3"
		},
		{
			"bufferView":10,
			"componentType":5126,
			"count":224,
			"type":"VEC2"
		},
		{
			"bufferView":11,
			"componentType":5123,
			"count":288,
			"type":"SCALAR"
		},
		{
			"bufferView":12,
			"componentType":5126,
			"count":1888,
			"max":[
				0.5092877745628357,
				5.1519904136657715,
				0.7690995335578918
			],
			"min":[
				0.1710144281387329,
				4.813716888427734,
				0.43407583236694336
			],
			"type":"VEC3"
		},
		{
			"bufferView":13,
			"componentType":5126,
			"count":1888,
			"type":"VEC3"
		},
		{
			"bufferView":14,
			"componentType":5126,
			"count":1888,
			"type":"VEC2"
		},
		{
			"bufferView":15,
			"componentType":5123,
			"count":2784,
			"type":"SCALAR"
		},
		{
			"bufferView":16,
			"componentType":5126,
			"count":224,
			"max":[
				0.37314796447753906,
				5.01585054397583,
				0.7690995335578918
			],
			"min":[
				0.30715411901474,
				4.949856758117676,
				0.7303332090377808
			],
			"type":"VEC3"
		},
		{
			"bufferView":17,
			"componentType":5126,
			"count":224,
			"type":"VEC3"
		},
		{
			"bufferView":18,
			"componentType":5126,
			"count":224,
			"type":"VEC2"
		},
		{
			"bufferView":19,
			"componentType":5126,
			"count":24,
			"max":[
				0.5617769956588745,
				5.357733249664307,
				0.7749395370483398
			],
			"min":[
				0.13357391953468323,
				5.150312900543213,
				0.2714436650276184
			],
			"type":"VEC3"
		},
		{
			"bufferView":20,
			"componentType":5126,
			"count":24,
			"type":"VEC3"
		},
		{
			"bufferView":21,
			"componentType":5126,
			"count":24,
			"type":"VEC2"
		},
		{
			"bufferView":22,
			"componentType":5123,
			"count":36,
			"type":"SCALAR"
		},
		{
			"bufferView":23,
			"componentType":5126,
			"count":30,
			"max":[
				-0.02873612940311432,
				5.364410400390625,
				0.8212980031967163
			],
			"min":[
				-0.43335288763046265,
				5.152005672454834,
				0.41788795590400696
			],
			"type":"VEC3"
		},
		{
			"bufferView":24,
			"componentType":5126,
			"count":30,
			"type":"VEC3"
		},
		{
			"bufferView":25,
			"componentType":5126,
			"count":30,
			"type":"VEC2"
		},
		{
			"bufferView":26,
			"componentType":5123,
			"count":48,
			"type":"SCALAR"
		}
	],
	"bufferViews":[
		{
			"buffer":0,
			"byteLength":209988,
			"byteOffset":0,
			"target":34962
		},
		{
			"buffer":0,
			"byteLength":209988,
			"byteOffset":209988,
			"target":34962
		},
		{
			"buffer":0,
			"byteLength":139992,
			"byteOffset":419976,
			"target":34962
		},
		{
			"buffer":0,
			"byteLength":52512,
			"byteOffset":559968,
			"target":34963
		},
		{
			"buffer":0,
			"byteLength":22656,
			"byteOffset":612480,
			"target":34962
		},
		{
			"buffer":0,
			"byteLength":22656,
			"byteOffset":635136,
			"target":34962
		},
		{
			"buffer":0,
			"byteLength":15104,
			"byteOffset":657792,
			"target":34962
		},
		{
			"buffer":0,
			"byteLength":5568,
			"byteOffset":672896,
			"target":34963
		},
		{
			"buffer":0,
			"byteLength":2688,
			"byteOffset":678464,
			"target":34962
		},
		{
			"buffer":0,
			"byteLength":2688,
			"byteOffset":681152,
			"target":34962
		},
		{
			"buffer":0,
			"byteLength":1792,
			"byteOffset":683840,
			"target":34962
		},
		{
			"buffer":0,
			"byteLength":576,
			"byteOffset":685632,
			"target":34963
		},
		{
			"buffer":0,
			"byteLength":22656,
			"byteOffset":686208,
			"target":34962
		},
		{
			"buffer":0,
			"byteLength":22656,
			"byteOffset":708864,
			"target":34962
		},
		{
			"buffer":0,
			"byteLength":15104,
			"byteOffset":731520,
			"target":34962
		},
		{
			"buffer":0,
			"byteLength":5568,
			"byteOffset":746624,
			"target":34963
		},
		{
			"buffer":0,
			"byteLength":2688,
			"byteOffset":752192,
			"target":34962
		},
		{
			"buffer":0,
			"byteLength":2688,
			"byteOffset":754880,
			"target":34962
		},
		{
			"buffer":0,
			"byteLength":1792,
			"byteOffset":757568,
			"target":34962
		},
		{
			"buffer":0,
			"byteLength":288,
			"byteOffset":759360,
			"target":34962
		},
		{
			"buffer":0,
			"byteLength":288,
			"byteOffset":759648,
			"target":34962
		},
		{
			"buffer":0,
			"byteLength":192,
			"byteOffset":759936,
			"target":34962
		},
		{
			"buffer":0,
			"byteLength":72,
			"byteOffset":760128,
			"target":34963
		},
		{
			"buffer":0,
			"byteLength":360,
			"byteOffset":760200,
			"target":34962
		},
		{
			"buffer":0,
			"byteLength":360,
			"byteOffset":760560,
			"target":34962
		},
		{
			"buffer":0,
			"byteLength":240,
			"byteOffset":760920,
			"target":34962
		},
		{
			"buffer":0,
			"byteLength":96,
			"byteOffset":761160,
			"target":34963
		}
	],
	"buffers":[
		{
			"byteLength":761256,
			"uri":"crazy_boy_noarm.bin"
		}
	]
}
