{
	"asset":{
		"generator":"Khronos glTF Blender I/O v4.4.55",
		"version":"2.0"
	},
	"scene":0,
	"scenes":[
		{
			"name":"Scene",
			"nodes":[
				10
			]
		}
	],
	"nodes":[
		{
			"name":"Right_leg",
			"rotation":[
				1,
				0,
				-4.371138828673793e-08,
				0
			],
			"translation":[
				-1.5,
				12,
				0
			]
		},
		{
			"name":"Left_leg",
			"rotation":[
				1,
				0,
				-4.371138828673793e-08,
				0
			],
			"translation":[
				1.5,
				12,
				0
			]
		},
		{
			"name":"Left_hand",
			"rotation":[
				0.5,
				-0.5,
				0.5,
				0.5
			],
			"scale":[
				1,
				0.9999999403953552,
				1
			],
			"translation":[
				10,
				1,
				0
			]
		},
		{
			"name":"Right_hand",
			"rotation":[
				0.5,
				0.5,
				-0.5,
				0.5
			],
			"scale":[
				1,
				0.9999999403953552,
				1
			],
			"translation":[
				-10,
				1,
				0
			]
		},
		{
			"children":[
				0,
				1,
				2,
				3
			],
			"name":"Root",
			"rotation":[
				1,
				0,
				0,
				0
			],
			"translation":[
				0,
				12,
				0
			]
		},
		{
			"mesh":0,
			"name":"Cube",
			"skin":0
		},
		{
			"mesh":1,
			"name":"Cube.001",
			"skin":0
		},
		{
			"mesh":2,
			"name":"Plane.001",
			"skin":0
		},
		{
			"mesh":3,
			"name":"Sphere",
			"skin":0
		},
		{
			"mesh":4,
			"name":"Sphere.001",
			"skin":0
		},
		{
			"children":[
				5,
				6,
				7,
				8,
				9,
				4
			],
			"name":"Armature"
		}
	],
	"materials":[
		{
			"doubleSided":true,
			"name":"Material.007",
			"pbrMetallicRoughness":{
				"baseColorFactor":[
					0,
					0,
					0,
					1
				],
				"metallicFactor":0,
				"roughnessFactor":0.5
			}
		},
		{
			"doubleSided":true,
			"name":"Material.006",
			"pbrMetallicRoughness":{
				"baseColorFactor":[
					0,
					0,
					0,
					1
				],
				"metallicFactor":0,
				"roughnessFactor":0.5
			}
		},
		{
			"doubleSided":true,
			"name":"Material.001",
			"pbrMetallicRoughness":{
				"baseColorFactor":[
					0.0736975148320198,
					0.37185385823249817,
					0.054666999727487564,
					1
				],
				"metallicFactor":0,
				"roughnessFactor":0.5
			}
		},
		{
			"doubleSided":true,
			"name":"Material.004",
			"pbrMetallicRoughness":{
				"baseColorFactor":[
					0.800000011920929,
					0.800000011920929,
					0.800000011920929,
					1
				],
				"metallicFactor":0,
				"roughnessFactor":0.5
			}
		},
		{
			"doubleSided":true,
			"name":"Material.005",
			"pbrMetallicRoughness":{
				"baseColorFactor":[
					0,
					0,
					0,
					1
				],
				"metallicFactor":0,
				"roughnessFactor":0.5
			}
		},
		{
			"doubleSided":true,
			"name":"Material.002",
			"pbrMetallicRoughness":{
				"baseColorFactor":[
					0.8000000715255737,
					0.8000000715255737,
					0.8000000715255737,
					1
				],
				"metallicFactor":0,
				"roughnessFactor":0.5
			}
		},
		{
			"doubleSided":true,
			"name":"Material.003",
			"pbrMetallicRoughness":{
				"baseColorFactor":[
					0,
					0,
					0,
					1
				],
				"metallicFactor":0,
				"roughnessFactor":0.5
			}
		}
	],
	"meshes":[
		{
			"name":"Cube.002",
			"primitives":[
				{
					"attributes":{
						"POSITION":0,
						"NORMAL":1,
						"TEXCOORD_0":2,
						"JOINTS_0":3,
						"WEIGHTS_0":4
					},
					"indices":5,
					"material":0
				}
			]
		},
		{
			"name":"Cube.003",
			"primitives":[
				{
					"attributes":{
						"POSITION":7,
						"NORMAL":8,
						"TEXCOORD_0":9,
						"JOINTS_0":10,
						"WEIGHTS_0":11
					},
					"indices":12,
					"material":1
				}
			]
		},
		{
			"name":"Mesh.002",
			"primitives":[
				{
					"attributes":{
						"POSITION":13,
						"NORMAL":14,
						"TEXCOORD_0":15,
						"JOINTS_0":16,
						"WEIGHTS_0":17
					},
					"indices":18,
					"material":2
				}
			]
		},
		{
			"name":"Sphere",
			"primitives":[
				{
					"attributes":{
						"POSITION":19,
						"NORMAL":20,
						"TEXCOORD_0":21,
						"JOINTS_0":22,
						"WEIGHTS_0":23
					},
					"indices":24,
					"material":3
				},
				{
					"attributes":{
						"POSITION":25,
						"NORMAL":26,
						"TEXCOORD_0":27,
						"JOINTS_0":28,
						"WEIGHTS_0":29
					},
					"indices":30,
					"material":4
				}
			]
		},
		{
			"name":"Sphere.001",
			"primitives":[
				{
					"attributes":{
						"POSITION":31,
						"NORMAL":32,
						"TEXCOORD_0":33,
						"JOINTS_0":34,
						"WEIGHTS_0":35
					},
					"indices":24,
					"material":5
				},
				{
					"attributes":{
						"POSITION":36,
						"NORMAL":37,
						"TEXCOORD_0":38,
						"JOINTS_0":39,
						"WEIGHTS_0":40
					},
					"indices":30,
					"material":6
				}
			]
		}
	],
	"skins":[
		{
			"inverseBindMatrices":6,
			"joints":[
				4,
				0,
				1,
				2,
				3
			],
			"name":"Armature"
		}
	],
	"accessors":[
		{
			"bufferView":0,
			"componentType":5126,
			"count":24,
			"max":[
				1.6853307485580444,
				16.073198318481445,
				2.3248186111450195
			],
			"min":[
				0.4007217586040497,
				15.45093822479248,
				0.8143309950828552
			],
			"type":"VEC3"
		},
		{
			"bufferView":1,
			"componentType":5126,
			"count":24,
			"type":"VEC3"
		},
		{
			"bufferView":2,
			"componentType":5126,
			"count":24,
			"type":"VEC2"
		},
		{
			"bufferView":3,
			"componentType":5121,
			"count":24,
			"type":"VEC4"
		},
		{
			"bufferView":4,
			"componentType":5126,
			"count":24,
			"type":"VEC4"
		},
		{
			"bufferView":5,
			"componentType":5123,
			"count":36,
			"type":"SCALAR"
		},
		{
			"bufferView":6,
			"componentType":5126,
			"count":5,
			"type":"MAT4"
		},
		{
			"bufferView":7,
			"componentType":5126,
			"count":30,
			"max":[
				-0.08620858937501907,
				16.093231201171875,
				2.4638936519622803
			],
			"min":[
				-1.3000588417053223,
				15.45601749420166,
				1.2536636590957642
			],
			"type":"VEC3"
		},
		{
			"bufferView":8,
			"componentType":5126,
			"count":30,
			"type":"VEC3"
		},
		{
			"bufferView":9,
			"componentType":5126,
			"count":30,
			"type":"VEC2"
		},
		{
			"bufferView":10,
			"componentType":5121,
			"count":30,
			"type":"VEC4"
		},
		{
			"bufferView":11,
			"componentType":5126,
			"count":30,
			"type":"VEC4"
		},
		{
			"bufferView":12,
			"componentType":5123,
			"count":48,
			"type":"SCALAR"
		},
		{
			"bufferView":13,
			"componentType":5126,
			"count":17499,
			"max":[
				11.524419784545898,
				16.182952880859375,
				2.993350028991699
			],
			"min":[
				-11.524419784545898,
				-0.6070048213005066,
				-1.7752602100372314
			],
			"type":"VEC3"
		},
		{
			"bufferView":14,
			"componentType":5126,
			"count":17499,
			"type":"VEC3"
		},
		{
			"bufferView":15,
			"componentType":5126,
			"count":17499,
			"type":"VEC2"
		},
		{
			"bufferView":16,
			"componentType":5121,
			"count":17499,
			"type":"VEC4"
		},
		{
			"bufferView":17,
			"componentType":5126,
			"count":17499,
			"type":"VEC4"
		},
		{
			"bufferView":18,
			"componentType":5123,
			"count":26256,
			"type":"SCALAR"
		},
		{
			"bufferView":19,
			"componentType":5126,
			"count":1888,
			"max":[
				-0.3058120310306549,
				15.455971717834473,
				2.3072986602783203
			],
			"min":[
				-1.3206321001052856,
				14.441150665283203,
				1.30222749710083
			],
			"type":"VEC3"
		},
		{
			"bufferView":20,
			"componentType":5126,
			"count":1888,
			"type":"VEC3"
		},
		{
			"bufferView":21,
			"componentType":5126,
			"count":1888,
			"type":"VEC2"
		},
		{
			"bufferView":22,
			"componentType":5121,
			"count":1888,
			"type":"VEC4"
		},
		{
			"bufferView":23,
			"componentType":5126,
			"count":1888,
			"type":"VEC4"
		},
		{
			"bufferView":24,
			"componentType":5123,
			"count":2784,
			"type":"SCALAR"
		},
		{
			"bufferView":25,
			"componentType":5126,
			"count":224,
			"max":[
				-0.7142314314842224,
				15.047551155090332,
				2.3072986602783203
			],
			"min":[
				-0.9122129678726196,
				14.849570274353027,
				2.190999746322632
			],
			"type":"VEC3"
		},
		{
			"bufferView":26,
			"componentType":5126,
			"count":224,
			"type":"VEC3"
		},
		{
			"bufferView":27,
			"componentType":5126,
			"count":224,
			"type":"VEC2"
		},
		{
			"bufferView":28,
			"componentType":5121,
			"count":224,
			"type":"VEC4"
		},
		{
			"bufferView":29,
			"componentType":5126,
			"count":224,
			"type":"VEC4"
		},
		{
			"bufferView":30,
			"componentType":5123,
			"count":288,
			"type":"SCALAR"
		},
		{
			"bufferView":31,
			"componentType":5126,
			"count":1888,
			"max":[
				1.5278633832931519,
				15.455971717834473,
				2.3072986602783203
			],
			"min":[
				0.5130433440208435,
				14.441150665283203,
				1.30222749710083
			],
			"type":"VEC3"
		},
		{
			"bufferView":32,
			"componentType":5126,
			"count":1888,
			"type":"VEC3"
		},
		{
			"bufferView":33,
			"componentType":5126,
			"count":1888,
			"type":"VEC2"
		},
		{
			"bufferView":34,
			"componentType":5121,
			"count":1888,
			"type":"VEC4"
		},
		{
			"bufferView":35,
			"componentType":5126,
			"count":1888,
			"type":"VEC4"
		},
		{
			"bufferView":36,
			"componentType":5126,
			"count":224,
			"max":[
				1.1194440126419067,
				15.047551155090332,
				2.3072986602783203
			],
			"min":[
				0.9214624762535095,
				14.849570274353027,
				2.190999746322632
			],
			"type":"VEC3"
		},
		{
			"bufferView":37,
			"componentType":5126,
			"count":224,
			"type":"VEC3"
		},
		{
			"bufferView":38,
			"componentType":5126,
			"count":224,
			"type":"VEC2"
		},
		{
			"bufferView":39,
			"componentType":5121,
			"count":224,
			"type":"VEC4"
		},
		{
			"bufferView":40,
			"componentType":5126,
			"count":224,
			"type":"VEC4"
		}
	],
	"bufferViews":[
		{
			"buffer":0,
			"byteLength":288,
			"byteOffset":0,
			"target":34962
		},
		{
			"buffer":0,
			"byteLength":288,
			"byteOffset":288,
			"target":34962
		},
		{
			"buffer":0,
			"byteLength":192,
			"byteOffset":576,
			"target":34962
		},
		{
			"buffer":0,
			"byteLength":96,
			"byteOffset":768,
			"target":34962
		},
		{
			"buffer":0,
			"byteLength":384,
			"byteOffset":864,
			"target":34962
		},
		{
			"buffer":0,
			"byteLength":72,
			"byteOffset":1248,
			"target":34963
		},
		{
			"buffer":0,
			"byteLength":320,
			"byteOffset":1320
		},
		{
			"buffer":0,
			"byteLength":360,
			"byteOffset":1640,
			"target":34962
		},
		{
			"buffer":0,
			"byteLength":360,
			"byteOffset":2000,
			"target":34962
		},
		{
			"buffer":0,
			"byteLength":240,
			"byteOffset":2360,
			"target":34962
		},
		{
			"buffer":0,
			"byteLength":120,
			"byteOffset":2600,
			"target":34962
		},
		{
			"buffer":0,
			"byteLength":480,
			"byteOffset":2720,
			"target":34962
		},
		{
			"buffer":0,
			"byteLength":96,
			"byteOffset":3200,
			"target":34963
		},
		{
			"buffer":0,
			"byteLength":209988,
			"byteOffset":3296,
			"target":34962
		},
		{
			"buffer":0,
			"byteLength":209988,
			"byteOffset":213284,
			"target":34962
		},
		{
			"buffer":0,
			"byteLength":139992,
			"byteOffset":423272,
			"target":34962
		},
		{
			"buffer":0,
			"byteLength":69996,
			"byteOffset":563264,
			"target":34962
		},
		{
			"buffer":0,
			"byteLength":279984,
			"byteOffset":633260,
			"target":34962
		},
		{
			"buffer":0,
			"byteLength":52512,
			"byteOffset":913244,
			"target":34963
		},
		{
			"buffer":0,
			"byteLength":22656,
			"byteOffset":965756,
			"target":34962
		},
		{
			"buffer":0,
			"byteLength":22656,
			"byteOffset":988412,
			"target":34962
		},
		{
			"buffer":0,
			"byteLength":15104,
			"byteOffset":1011068,
			"target":34962
		},
		{
			"buffer":0,
			"byteLength":7552,
			"byteOffset":1026172,
			"target":34962
		},
		{
			"buffer":0,
			"byteLength":30208,
			"byteOffset":1033724,
			"target":34962
		},
		{
			"buffer":0,
			"byteLength":5568,
			"byteOffset":1063932,
			"target":34963
		},
		{
			"buffer":0,
			"byteLength":2688,
			"byteOffset":1069500,
			"target":34962
		},
		{
			"buffer":0,
			"byteLength":2688,
			"byteOffset":1072188,
			"target":34962
		},
		{
			"buffer":0,
			"byteLength":1792,
			"byteOffset":1074876,
			"target":34962
		},
		{
			"buffer":0,
			"byteLength":896,
			"byteOffset":1076668,
			"target":34962
		},
		{
			"buffer":0,
			"byteLength":3584,
			"byteOffset":1077564,
			"target":34962
		},
		{
			"buffer":0,
			"byteLength":576,
			"byteOffset":1081148,
			"target":34963
		},
		{
			"buffer":0,
			"byteLength":22656,
			"byteOffset":1081724,
			"target":34962
		},
		{
			"buffer":0,
			"byteLength":22656,
			"byteOffset":1104380,
			"target":34962
		},
		{
			"buffer":0,
			"byteLength":15104,
			"byteOffset":1127036,
			"target":34962
		},
		{
			"buffer":0,
			"byteLength":7552,
			"byteOffset":1142140,
			"target":34962
		},
		{
			"buffer":0,
			"byteLength":30208,
			"byteOffset":1149692,
			"target":34962
		},
		{
			"buffer":0,
			"byteLength":2688,
			"byteOffset":1179900,
			"target":34962
		},
		{
			"buffer":0,
			"byteLength":2688,
			"byteOffset":1182588,
			"target":34962
		},
		{
			"buffer":0,
			"byteLength":1792,
			"byteOffset":1185276,
			"target":34962
		},
		{
			"buffer":0,
			"byteLength":896,
			"byteOffset":1187068,
			"target":34962
		},
		{
			"buffer":0,
			"byteLength":3584,
			"byteOffset":1187964,
			"target":34962
		}
	],
	"buffers":[
		{
			"byteLength":1191548,
			"uri":"crazy_boy_test.bin"
		}
	]
}
