{
	"asset":{
		"generator":"Khronos glTF Blender I/O v4.4.55",
		"version":"2.0"
	},
	"scene":0,
	"scenes":[
		{
			"name":"Scene",
			"nodes":[
				0
			]
		}
	],
	"nodes":[
		{
			"mesh":0,
			"name":"Cube",
			"scale":[
				2.8600001335144043,
				4.480000019073486,
				3.3899998664855957
			]
		}
	],
	"materials":[
		{
			"doubleSided":true,
			"name":"BODY",
			"pbrMetallicRoughness":{
				"baseColorFactor":[
					0.3866286277770996,
					0.2674511671066284,
					0.8006458282470703,
					1
				],
				"metallicFactor":0,
				"roughnessFactor":0.5
			}
		},
		{
			"doubleSided":true,
			"name":"Screen",
			"pbrMetallicRoughness":{
				"baseColorFactor":[
					0,
					0,
					0,
					1
				],
				"metallicFactor":0,
				"roughnessFactor":0.5
			}
		},
		{
			"doubleSided":true,
			"name":"FACE",
			"pbrMetallicRoughness":{
				"baseColorFactor":[
					0,
					0.6286219358444214,
					0.8002041578292847,
					1
				],
				"metallicFactor":0,
				"roughnessFactor":0.5
			}
		}
	],
	"meshes":[
		{
			"name":"Cube",
			"primitives":[
				{
					"attributes":{
						"POSITION":0,
						"NORMAL":1,
						"TEXCOORD_0":2
					},
					"indices":3,
					"material":0
				},
				{
					"attributes":{
						"POSITION":4,
						"NORMAL":5,
						"TEXCOORD_0":6
					},
					"indices":7,
					"material":1
				},
				{
					"attributes":{
						"POSITION":8,
						"NORMAL":9,
						"TEXCOORD_0":10
					},
					"indices":11,
					"material":2
				}
			]
		}
	],
	"accessors":[
		{
			"bufferView":0,
			"componentType":5126,
			"count":80,
			"max":[
				1.352829933166504,
				2.0110530853271484,
				0.7023322582244873
			],
			"min":[
				-1.0177993774414062,
				0.011053204536437988,
				-0.9849834442138672
			],
			"type":"VEC3"
		},
		{
			"bufferView":1,
			"componentType":5126,
			"count":80,
			"type":"VEC3"
		},
		{
			"bufferView":2,
			"componentType":5126,
			"count":80,
			"type":"VEC2"
		},
		{
			"bufferView":3,
			"componentType":5123,
			"count":132,
			"type":"SCALAR"
		},
		{
			"bufferView":4,
			"componentType":5126,
			"count":24,
			"max":[
				1.3213611841201782,
				1.6252429485321045,
				0.05386834591627121
			],
			"min":[
				-0.9863306879997253,
				0.7636361718177795,
				-0.08772461861371994
			],
			"type":"VEC3"
		},
		{
			"bufferView":5,
			"componentType":5126,
			"count":24,
			"type":"VEC3"
		},
		{
			"bufferView":6,
			"componentType":5126,
			"count":24,
			"type":"VEC2"
		},
		{
			"bufferView":7,
			"componentType":5123,
			"count":36,
			"type":"SCALAR"
		},
		{
			"bufferView":8,
			"componentType":5126,
			"count":840,
			"max":[
				0.9061483144760132,
				1.4271184206008911,
				0.18165308237075806
			],
			"min":[
				-0.5711178183555603,
				0.8889599442481995,
				-0.4569706916809082
			],
			"type":"VEC3"
		},
		{
			"bufferView":9,
			"componentType":5126,
			"count":840,
			"type":"VEC3"
		},
		{
			"bufferView":10,
			"componentType":5126,
			"count":840,
			"type":"VEC2"
		},
		{
			"bufferView":11,
			"componentType":5123,
			"count":1260,
			"type":"SCALAR"
		}
	],
	"bufferViews":[
		{
			"buffer":0,
			"byteLength":960,
			"byteOffset":0,
			"target":34962
		},
		{
			"buffer":0,
			"byteLength":960,
			"byteOffset":960,
			"target":34962
		},
		{
			"buffer":0,
			"byteLength":640,
			"byteOffset":1920,
			"target":34962
		},
		{
			"buffer":0,
			"byteLength":264,
			"byteOffset":2560,
			"target":34963
		},
		{
			"buffer":0,
			"byteLength":288,
			"byteOffset":2824,
			"target":34962
		},
		{
			"buffer":0,
			"byteLength":288,
			"byteOffset":3112,
			"target":34962
		},
		{
			"buffer":0,
			"byteLength":192,
			"byteOffset":3400,
			"target":34962
		},
		{
			"buffer":0,
			"byteLength":72,
			"byteOffset":3592,
			"target":34963
		},
		{
			"buffer":0,
			"byteLength":10080,
			"byteOffset":3664,
			"target":34962
		},
		{
			"buffer":0,
			"byteLength":10080,
			"byteOffset":13744,
			"target":34962
		},
		{
			"buffer":0,
			"byteLength":6720,
			"byteOffset":23824,
			"target":34962
		},
		{
			"buffer":0,
			"byteLength":2520,
			"byteOffset":30544,
			"target":34963
		}
	],
	"buffers":[
		{
			"byteLength":33064,
			"uri":"final_boss.bin"
		}
	]
}
