{
	"asset":{
		"generator":"Khronos glTF Blender I/O v4.4.55",
		"version":"2.0"
	},
	"scene":0,
	"scenes":[
		{
			"name":"Scene",
			"nodes":[
				0
			]
		}
	],
	"nodes":[
		{
			"mesh":0,
			"name":"Cylinder.002",
			"scale":[
				4.393817901611328,
				4.541274070739746,
				4.479369640350342
			]
		}
	],
	"materials":[
		{
			"doubleSided":true,
			"name":"tall guy",
			"pbrMetallicRoughness":{
				"baseColorFactor":[
					0.6139822006225586,
					0.02193339355289936,
					0.00099984894040972,
					1
				],
				"metallicFactor":0,
				"roughnessFactor":0.5
			}
		},
		{
			"doubleSided":true,
			"name":"EYES",
			"pbrMetallicRoughness":{
				"baseColorFactor":[
					0,
					0.4498225450515747,
					0.8006705641746521,
					1
				],
				"metallicFactor":0,
				"roughnessFactor":0.5
			}
		},
		{
			"doubleSided":true,
			"name":"EYES.001",
			"pbrMetallicRoughness":{
				"baseColorFactor":[
					0,
					0.4498225450515747,
					0.8006705641746521,
					1
				],
				"metallicFactor":0,
				"roughnessFactor":0.5
			}
		}
	],
	"meshes":[
		{
			"name":"Cylinder.002",
			"primitives":[
				{
					"attributes":{
						"POSITION":0,
						"NORMAL":1,
						"TEXCOORD_0":2
					},
					"indices":3,
					"material":0
				},
				{
					"attributes":{
						"POSITION":4,
						"NORMAL":5,
						"TEXCOORD_0":6
					},
					"indices":7,
					"material":1
				},
				{
					"attributes":{
						"POSITION":8,
						"NORMAL":9,
						"TEXCOORD_0":10
					},
					"indices":11,
					"material":2
				}
			]
		}
	],
	"accessors":[
		{
			"bufferView":0,
			"componentType":5126,
			"count":4836,
			"max":[
				0.15092653036117554,
				0.821325421333313,
				0.07670899480581284
			],
			"min":[
				-0.15092653036117554,
				0.002198919653892517,
				-0.14374396204948425
			],
			"type":"VEC3"
		},
		{
			"bufferView":1,
			"componentType":5126,
			"count":4836,
			"type":"VEC3"
		},
		{
			"bufferView":2,
			"componentType":5126,
			"count":4836,
			"type":"VEC2"
		},
		{
			"bufferView":3,
			"componentType":5123,
			"count":7476,
			"type":"SCALAR"
		},
		{
			"bufferView":4,
			"componentType":5126,
			"count":3384,
			"max":[
				0.2841428518295288,
				0.743455171585083,
				0.11113154888153076
			],
			"min":[
				-0.2841428816318512,
				0.46436917781829834,
				-0.044649142771959305
			],
			"type":"VEC3"
		},
		{
			"bufferView":5,
			"componentType":5126,
			"count":3384,
			"type":"VEC3"
		},
		{
			"bufferView":6,
			"componentType":5126,
			"count":3384,
			"type":"VEC2"
		},
		{
			"bufferView":7,
			"componentType":5123,
			"count":5412,
			"type":"SCALAR"
		},
		{
			"bufferView":8,
			"componentType":5126,
			"count":48,
			"max":[
				0.03091707080602646,
				0.743399441242218,
				0.04618694260716438
			],
			"min":[
				-0.03091707080602646,
				0.6905508637428284,
				0.0015378035604953766
			],
			"type":"VEC3"
		},
		{
			"bufferView":9,
			"componentType":5126,
			"count":48,
			"type":"VEC3"
		},
		{
			"bufferView":10,
			"componentType":5126,
			"count":48,
			"type":"VEC2"
		},
		{
			"bufferView":11,
			"componentType":5123,
			"count":72,
			"type":"SCALAR"
		}
	],
	"bufferViews":[
		{
			"buffer":0,
			"byteLength":58032,
			"byteOffset":0,
			"target":34962
		},
		{
			"buffer":0,
			"byteLength":58032,
			"byteOffset":58032,
			"target":34962
		},
		{
			"buffer":0,
			"byteLength":38688,
			"byteOffset":116064,
			"target":34962
		},
		{
			"buffer":0,
			"byteLength":14952,
			"byteOffset":154752,
			"target":34963
		},
		{
			"buffer":0,
			"byteLength":40608,
			"byteOffset":169704,
			"target":34962
		},
		{
			"buffer":0,
			"byteLength":40608,
			"byteOffset":210312,
			"target":34962
		},
		{
			"buffer":0,
			"byteLength":27072,
			"byteOffset":250920,
			"target":34962
		},
		{
			"buffer":0,
			"byteLength":10824,
			"byteOffset":277992,
			"target":34963
		},
		{
			"buffer":0,
			"byteLength":576,
			"byteOffset":288816,
			"target":34962
		},
		{
			"buffer":0,
			"byteLength":576,
			"byteOffset":289392,
			"target":34962
		},
		{
			"buffer":0,
			"byteLength":384,
			"byteOffset":289968,
			"target":34962
		},
		{
			"buffer":0,
			"byteLength":144,
			"byteOffset":290352,
			"target":34963
		}
	],
	"buffers":[
		{
			"byteLength":290496,
			"uri":"miniboss_gun.bin"
		}
	]
}
