{
	"asset":{
		"generator":"Khronos glTF Blender I/O v4.4.55",
		"version":"2.0"
	},
	"scene":0,
	"scenes":[
		{
			"name":"Scene",
			"nodes":[
				0
			]
		}
	],
	"nodes":[
		{
			"mesh":0,
			"name":"Cylinder",
			"scale":[
				4.393817901611328,
				4.541274070739746,
				4.479369640350342
			]
		}
	],
	"materials":[
		{
			"doubleSided":true,
			"name":"tall guy",
			"pbrMetallicRoughness":{
				"baseColorFactor":[
					0.051454197615385056,
					0.2332625389099121,
					1,
					1
				],
				"metallicFactor":0,
				"roughnessFactor":0.5
			}
		},
		{
			"doubleSided":true,
			"name":"eyes",
			"pbrMetallicRoughness":{
				"baseColorFactor":[
					0,
					0,
					0,
					1
				],
				"metallicFactor":0,
				"roughnessFactor":0.5
			}
		}
	],
	"meshes":[
		{
			"name":"Cylinder",
			"primitives":[
				{
					"attributes":{
						"POSITION":0,
						"NORMAL":1,
						"TEXCOORD_0":2
					},
					"indices":3,
					"material":0
				},
				{
					"attributes":{
						"POSITION":4,
						"NORMAL":5,
						"TEXCOORD_0":6
					},
					"indices":7,
					"material":1
				}
			]
		}
	],
	"accessors":[
		{
			"bufferView":0,
			"componentType":5126,
			"count":6642,
			"max":[
				0.5313194394111633,
				1.0848723649978638,
				0.09564598649740219
			],
			"min":[
				-0.6663457155227661,
				0.0006842939183115959,
				-0.1353583186864853
			],
			"type":"VEC3"
		},
		{
			"bufferView":1,
			"componentType":5126,
			"count":6642,
			"type":"VEC3"
		},
		{
			"bufferView":2,
			"componentType":5126,
			"count":6642,
			"type":"VEC2"
		},
		{
			"bufferView":3,
			"componentType":5123,
			"count":10668,
			"type":"SCALAR"
		},
		{
			"bufferView":4,
			"componentType":5126,
			"count":226,
			"max":[
				0.04427642002701759,
				0.9978353977203369,
				0.05156092718243599
			],
			"min":[
				-0.04427642002701759,
				0.901156485080719,
				0.027343109250068665
			],
			"type":"VEC3"
		},
		{
			"bufferView":5,
			"componentType":5126,
			"count":226,
			"type":"VEC3"
		},
		{
			"bufferView":6,
			"componentType":5126,
			"count":226,
			"type":"VEC2"
		},
		{
			"bufferView":7,
			"componentType":5123,
			"count":1050,
			"type":"SCALAR"
		}
	],
	"bufferViews":[
		{
			"buffer":0,
			"byteLength":79704,
			"byteOffset":0,
			"target":34962
		},
		{
			"buffer":0,
			"byteLength":79704,
			"byteOffset":79704,
			"target":34962
		},
		{
			"buffer":0,
			"byteLength":53136,
			"byteOffset":159408,
			"target":34962
		},
		{
			"buffer":0,
			"byteLength":21336,
			"byteOffset":212544,
			"target":34963
		},
		{
			"buffer":0,
			"byteLength":2712,
			"byteOffset":233880,
			"target":34962
		},
		{
			"buffer":0,
			"byteLength":2712,
			"byteOffset":236592,
			"target":34962
		},
		{
			"buffer":0,
			"byteLength":1808,
			"byteOffset":239304,
			"target":34962
		},
		{
			"buffer":0,
			"byteLength":2100,
			"byteOffset":241112,
			"target":34963
		}
	],
	"buffers":[
		{
			"byteLength":243212,
			"uri":"tall_guy.bin"
		}
	]
}
